<svg width="22" height="19" viewBox="0 0 22 19" fill="none" xmlns="http://www.w3.org/2000/svg">
<path d="M16.5 0C14.55 0 12.45 0.454473 11 1.70427C9.55 0.454473 7.45 0 5.5 0C4.05 0 2.51 0.24996 1.22 0.897584C0.49 1.27252 0 2.07921 0 2.99952V15.8157C0 17.2927 1.22 18.3834 2.48 18.0199C3.46 17.7358 4.5 17.6108 5.5 17.6108C7.06 17.6108 8.72 17.9062 10.06 18.6561C10.66 18.997 11.34 18.997 11.93 18.6561C13.27 17.8949 14.93 17.6108 16.49 17.6108C17.49 17.6108 18.53 17.7358 19.51 18.0199C20.77 18.3948 21.99 17.3041 21.99 15.8157V2.99952C21.99 2.07921 21.5 1.27252 20.77 0.897584C19.49 0.24996 17.95 0 16.5 0ZM20 14.4636C20 15.1794 19.42 15.702 18.8 15.5771C18.05 15.418 17.27 15.3498 16.5 15.3498C14.8 15.3498 12.35 16.0883 11 17.0541V3.97664C12.35 3.01088 14.8 2.27237 16.5 2.27237C17.42 2.27237 18.33 2.37462 19.2 2.5905C19.66 2.70411 20 3.16995 20 3.70396V14.4636Z" fill="url(#paint0_linear_17_200)"/>
<path d="M12.9799 7.39661C12.6599 7.39661 12.3699 7.16938 12.2699 6.8058C12.1399 6.36269 12.3599 5.87413 12.7499 5.73779C14.2899 5.16969 16.2799 4.98791 18.1099 5.2265C18.5199 5.28331 18.8199 5.7037 18.7699 6.16954C18.7199 6.63537 18.3499 6.97622 17.9399 6.91942C16.3199 6.70354 14.5499 6.87397 13.2099 7.36253C13.1299 7.37389 13.0499 7.39661 12.9799 7.39661Z" fill="url(#paint1_linear_17_200)"/>
<path d="M12.9799 10.4188C12.6599 10.4188 12.3699 10.1916 12.2699 9.82801C12.1399 9.3849 12.3599 8.89634 12.7499 8.76C14.2799 8.19191 16.2799 8.01012 18.1099 8.24872C18.5199 8.30553 18.8199 8.72592 18.7699 9.19175C18.7199 9.65759 18.3499 9.99844 17.9399 9.94163C16.3199 9.72576 14.5499 9.89619 13.2099 10.3847C13.1299 10.4075 13.0499 10.4188 12.9799 10.4188Z" fill="url(#paint2_linear_17_200)"/>
<path d="M12.9799 13.441C12.6599 13.441 12.3699 13.2138 12.2699 12.8502C12.1399 12.4071 12.3599 11.9186 12.7499 11.7822C14.2799 11.2141 16.2799 11.0323 18.1099 11.2709C18.5199 11.3277 18.8199 11.7481 18.7699 12.214C18.7199 12.6798 18.3499 13.0093 17.9399 12.9638C16.3199 12.748 14.5499 12.9184 13.2099 13.407C13.1299 13.4297 13.0499 13.441 12.9799 13.441Z" fill="url(#paint3_linear_17_200)"/>
<defs>
<linearGradient id="paint0_linear_17_200" x1="10.995" y1="0" x2="10.995" y2="18.9118" gradientUnits="userSpaceOnUse">
<stop stop-color="#B0F1FF"/>
<stop offset="1" stop-color="#83CFFA"/>
</linearGradient>
<linearGradient id="paint1_linear_17_200" x1="15.5039" y1="5.12415" x2="15.5039" y2="7.39661" gradientUnits="userSpaceOnUse">
<stop stop-color="#B0F1FF"/>
<stop offset="1" stop-color="#83CFFA"/>
</linearGradient>
<linearGradient id="paint2_linear_17_200" x1="15.5039" y1="8.14636" x2="15.5039" y2="10.4188" gradientUnits="userSpaceOnUse">
<stop stop-color="#B0F1FF"/>
<stop offset="1" stop-color="#83CFFA"/>
</linearGradient>
<linearGradient id="paint3_linear_17_200" x1="15.5039" y1="11.1686" x2="15.5039" y2="13.441" gradientUnits="userSpaceOnUse">
<stop stop-color="#B0F1FF"/>
<stop offset="1" stop-color="#83CFFA"/>
</linearGradient>
</defs>
</svg>
