<svg width="22" height="23" viewBox="0 0 22 23" fill="none" xmlns="http://www.w3.org/2000/svg">
<path d="M11.65 15.5316C11.79 15.1226 11.7 14.6568 11.42 14.3386L9.33 11.9981L9.36 11.964C11.1 9.75981 12.34 7.22612 13.07 4.54473H15.01C15.55 4.54473 16 4.03345 16 3.41991V3.39719C16 2.78365 15.55 2.27237 15.01 2.27237H9V1.13618C9 0.511282 8.55 0 8 0C7.45 0 7 0.511282 7 1.13618V2.27237H0.99C0.45 2.27237 0 2.78365 0 3.39719C0 4.02209 0.45 4.52201 0.99 4.52201H11.17C10.5 6.7262 9.44 8.80542 8 10.6233C7.19 9.6121 6.51 8.51001 5.94 7.3511C5.78 7.02161 5.49 6.8171 5.16 6.8171C4.47 6.8171 4.03 7.66923 4.37 8.35094C5 9.63483 5.77 10.8619 6.67 11.9981L2.3 16.895C1.9 17.3381 1.9 18.0653 2.3 18.5084C2.69 18.9515 3.32 18.9515 3.72 18.5084L8 13.6342L10.02 15.9293C10.53 16.5087 11.4 16.2929 11.65 15.5316ZM16.5 9.08946C15.9 9.08946 15.36 9.50985 15.15 10.1575L11.48 21.2921C11.24 21.9851 11.7 22.7237 12.35 22.7237C12.74 22.7237 13.09 22.451 13.23 22.0306L14.12 19.3151H18.87L19.77 22.0306C19.91 22.4396 20.26 22.7237 20.65 22.7237C21.3 22.7237 21.76 21.9851 21.53 21.2921L17.86 10.1575C17.64 9.50985 17.1 9.08946 16.5 9.08946ZM14.88 17.0427L16.5 12.1231L18.12 17.0427H14.88Z" fill="url(#paint0_linear_17_210)"/>
<defs>
<linearGradient id="paint0_linear_17_210" x1="10.795" y1="0" x2="10.795" y2="22.7237" gradientUnits="userSpaceOnUse">
<stop stop-color="#B0F1FF"/>
<stop offset="1" stop-color="#83CFFA"/>
</linearGradient>
</defs>
</svg>
