<svg width="226" height="41" viewBox="0 0 226 41" fill="none" xmlns="http://www.w3.org/2000/svg">
<path d="M8.01588 40.48C6.67188 40.48 5.24787 40.336 3.74388 40.048C2.23987 39.792 1.21588 39.504 0.671875 39.184C0.671875 37.392 0.831875 36.176 1.15187 35.536C1.47188 34.864 1.90388 34.528 2.44788 34.528C2.70388 34.528 2.99188 34.56 3.31188 34.624C3.66388 34.688 3.91988 34.736 4.07987 34.768C5.23188 35.056 6.25588 35.2 7.15188 35.2C8.46388 35.2 9.45588 34.816 10.1279 34.048C10.8319 33.28 11.1839 32.176 11.1839 30.736V6.40001H18.5759V30.736C18.5759 32.624 18.1279 34.304 17.2319 35.776C16.3359 37.248 15.0879 38.4 13.4879 39.232C11.8879 40.064 10.0639 40.48 8.01588 40.48Z" fill="#151515"/>
<path d="M35.1006 40.48C31.2286 40.48 28.2206 39.28 26.0766 36.88C23.9646 34.48 22.9086 31.104 22.9086 26.752C22.9086 22.4 23.9646 19.04 26.0766 16.672C28.2206 14.304 31.2286 13.12 35.1006 13.12C38.9726 13.12 41.9646 14.304 44.0766 16.672C46.2206 19.04 47.2926 22.4 47.2926 26.752C47.2926 31.104 46.2206 34.48 44.0766 36.88C41.9646 39.28 38.9726 40.48 35.1006 40.48ZM35.1006 35.872C36.8606 35.872 38.1246 35.152 38.8926 33.712C39.6926 32.272 40.0926 29.952 40.0926 26.752C40.0926 23.584 39.6926 21.296 38.8926 19.888C38.1246 18.448 36.8606 17.728 35.1006 17.728C33.3406 17.728 32.0606 18.432 31.2606 19.84C30.4926 21.248 30.1086 23.552 30.1086 26.752C30.1086 29.952 30.4926 32.272 31.2606 33.712C32.0606 35.152 33.3406 35.872 35.1006 35.872Z" fill="#151515"/>
<path d="M60.5099 40.48C57.3739 40.48 54.8939 40 53.0699 39.04C51.2779 38.08 50.3819 36.848 50.3819 35.344C50.3819 34.448 50.6859 33.696 51.2939 33.088C51.9339 32.448 52.8459 32.096 54.0299 32.032C54.7019 33.312 55.5659 34.272 56.6219 34.912C57.7099 35.552 59.0699 35.872 60.7019 35.872C63.5179 35.872 64.9259 34.816 64.9259 32.704C64.9259 31.84 64.5259 31.184 63.7259 30.736C62.9259 30.288 61.6139 29.76 59.7899 29.152C57.9339 28.544 56.3979 27.952 55.1819 27.376C53.9979 26.8 52.9739 25.968 52.1099 24.88C51.2459 23.76 50.8139 22.32 50.8139 20.56C50.8139 19.056 51.2779 17.744 52.2059 16.624C53.1659 15.472 54.4139 14.608 55.9499 14.032C57.5179 13.424 59.2139 13.12 61.0379 13.12C63.3739 13.12 65.4219 13.568 67.1819 14.464C68.9419 15.36 70.3179 16.56 71.3099 18.064C70.8939 18.864 70.3179 19.568 69.5819 20.176C68.8779 20.752 68.2379 21.04 67.6619 21.04C67.3419 21.04 67.0699 20.992 66.8459 20.896C66.6219 20.768 66.3979 20.576 66.1739 20.32C64.7339 18.528 63.0859 17.632 61.2299 17.632C60.0139 17.632 59.0699 17.872 58.3979 18.352C57.7579 18.8 57.4379 19.488 57.4379 20.416C57.4379 21.408 57.8699 22.16 58.7339 22.672C59.6299 23.184 61.0219 23.712 62.9099 24.256C64.7019 24.736 66.1739 25.248 67.3259 25.792C68.5099 26.304 69.5019 27.088 70.3019 28.144C71.1339 29.168 71.5499 30.528 71.5499 32.224C71.5499 34.88 70.5899 36.928 68.6699 38.368C66.7819 39.776 64.0619 40.48 60.5099 40.48Z" fill="#151515"/>
<path d="M76.3443 13.6H83.4482V40H76.3443V13.6ZM79.5602 8.75201C77.0642 8.75201 75.8163 7.50401 75.8163 5.00801V4.28801C75.8163 1.79201 77.0642 0.544006 79.5602 0.544006H80.2323C82.7283 0.544006 83.9762 1.79201 83.9762 4.28801V5.00801C83.9762 7.50401 82.7283 8.75201 80.2323 8.75201H79.5602Z" fill="#151515"/>
<path d="M111.1 30.064C111.1 32.688 111.196 34.576 111.388 35.728C111.612 36.88 112.044 37.872 112.684 38.704C112.012 39.184 111.148 39.584 110.092 39.904C109.036 40.192 108.076 40.336 107.212 40.336C106.412 40.336 105.772 40.048 105.292 39.472C104.812 38.896 104.46 37.984 104.236 36.736C103.372 38.08 102.348 39.04 101.164 39.616C99.9804 40.192 98.4444 40.48 96.5564 40.48C94.2204 40.48 92.3324 39.856 90.8924 38.608C89.4524 37.328 88.7324 35.664 88.7324 33.616C88.7324 30.736 89.9324 28.592 92.3324 27.184C94.7644 25.744 98.6524 24.88 103.996 24.592V22.096C103.996 20.784 103.644 19.808 102.94 19.168C102.268 18.528 101.228 18.208 99.8204 18.208C98.7964 18.208 97.7724 18.416 96.7484 18.832C95.7564 19.216 94.5244 19.904 93.0524 20.896C92.8924 21.024 92.6684 21.088 92.3804 21.088C91.8044 21.088 91.1804 20.704 90.5084 19.936C89.8684 19.168 89.2924 18.16 88.7804 16.912C90.0284 15.824 91.7724 14.928 94.0124 14.224C96.2844 13.488 98.5244 13.12 100.732 13.12C104.06 13.12 106.62 13.904 108.412 15.472C110.204 17.008 111.1 19.216 111.1 22.096V30.064ZM99.0524 35.872C100.012 35.872 100.892 35.536 101.692 34.864C102.524 34.192 103.292 33.152 103.996 31.744V28.192C101.34 28.288 99.3244 28.736 97.9484 29.536C96.6044 30.304 95.9324 31.408 95.9324 32.848C95.9324 33.776 96.2204 34.512 96.7964 35.056C97.3724 35.6 98.1244 35.872 99.0524 35.872Z" fill="#151515"/>
<path d="M125.854 40.48C122.718 40.48 120.238 40 118.414 39.04C116.622 38.08 115.726 36.848 115.726 35.344C115.726 34.448 116.03 33.696 116.638 33.088C117.278 32.448 118.19 32.096 119.374 32.032C120.046 33.312 120.91 34.272 121.966 34.912C123.054 35.552 124.414 35.872 126.046 35.872C128.862 35.872 130.27 34.816 130.27 32.704C130.27 31.84 129.87 31.184 129.07 30.736C128.27 30.288 126.958 29.76 125.134 29.152C123.278 28.544 121.742 27.952 120.526 27.376C119.342 26.8 118.318 25.968 117.454 24.88C116.59 23.76 116.158 22.32 116.158 20.56C116.158 19.056 116.622 17.744 117.55 16.624C118.51 15.472 119.758 14.608 121.294 14.032C122.862 13.424 124.558 13.12 126.382 13.12C128.718 13.12 130.766 13.568 132.526 14.464C134.286 15.36 135.662 16.56 136.654 18.064C136.238 18.864 135.662 19.568 134.926 20.176C134.222 20.752 133.582 21.04 133.006 21.04C132.686 21.04 132.414 20.992 132.19 20.896C131.966 20.768 131.742 20.576 131.518 20.32C130.078 18.528 128.43 17.632 126.574 17.632C125.358 17.632 124.414 17.872 123.742 18.352C123.102 18.8 122.782 19.488 122.782 20.416C122.782 21.408 123.214 22.16 124.078 22.672C124.974 23.184 126.366 23.712 128.254 24.256C130.046 24.736 131.518 25.248 132.67 25.792C133.854 26.304 134.846 27.088 135.646 28.144C136.478 29.168 136.894 30.528 136.894 32.224C136.894 34.88 135.934 36.928 134.014 38.368C132.126 39.776 129.406 40.48 125.854 40.48Z" fill="#151515"/>
<path d="M152.872 6.40001C156.264 6.40001 159.192 7.07201 161.656 8.41601C164.12 9.76 166.008 11.696 167.32 14.224C168.632 16.72 169.288 19.712 169.288 23.2C169.288 26.56 168.6 29.52 167.224 32.08C165.88 34.608 163.976 36.56 161.512 37.936C159.048 39.312 156.168 40 152.872 40H141.496V6.40001H152.872ZM151.912 34.912C155.112 34.912 157.576 33.904 159.304 31.888C161.032 29.84 161.896 26.96 161.896 23.248C161.896 15.408 158.568 11.488 151.912 11.488H148.888V34.912H151.912Z" fill="#151515"/>
<path d="M197.447 25.072C197.447 25.52 197.367 26.528 197.207 28.096H180.215C180.375 30.528 180.951 32.416 181.943 33.76C182.967 35.104 184.295 35.776 185.927 35.776C186.663 35.776 187.271 35.68 187.751 35.488C188.263 35.296 188.775 34.96 189.287 34.48C189.831 33.968 190.535 33.152 191.399 32.032C191.559 31.776 191.895 31.648 192.407 31.648C192.951 31.648 193.607 31.84 194.375 32.224C195.175 32.576 196.023 33.088 196.919 33.76C194.839 38.24 191.175 40.48 185.927 40.48C181.895 40.48 178.727 39.264 176.423 36.832C174.119 34.368 172.967 31.008 172.967 26.752C172.967 23.968 173.479 21.552 174.503 19.504C175.559 17.456 177.047 15.888 178.967 14.8C180.919 13.68 183.223 13.12 185.879 13.12C189.559 13.12 192.407 14.16 194.423 16.24C196.439 18.32 197.447 21.264 197.447 25.072ZM190.247 24.064C190.247 19.776 188.743 17.632 185.735 17.632C184.199 17.632 182.967 18.176 182.039 19.264C181.111 20.352 180.535 21.952 180.311 24.064H190.247Z" fill="#151515"/>
<path d="M225.674 13.6C225.29 18.72 224.363 23.472 222.891 27.856C221.419 32.208 219.243 36.256 216.363 40H209.643C206.699 36.224 204.442 32.16 202.874 27.808C201.338 23.424 200.363 18.688 199.947 13.6H207.387C207.515 17.312 208.01 20.816 208.874 24.112C209.77 27.376 211.178 30.576 213.098 33.712C214.922 30.576 216.218 27.376 216.986 24.112C217.786 20.816 218.202 17.312 218.234 13.6H225.674Z" fill="#151515"/>
</svg>
